<?xml version="1.0" encoding="utf-8"?>
<!-- Generator: Adobe Illustrator 16.0.0, SVG Export Plug-In . SVG Version: 6.00 Build 0)  -->
<svg version="1.2" baseProfile="tiny" id="Layer_1" xmlns="http://www.w3.org/2000/svg" xmlns:xlink="http://www.w3.org/1999/xlink"
	 x="0px" y="0px" width="300px" height="300px" viewBox="0 0 300 300" xml:space="preserve">
<g>
	<polygon fill="#2A3491" points="227.383,60.386 227.383,108.89 193.03,60.386 189.36,60.386 189.36,111.133 152.15,111.133 
		152.15,88.069 183.352,88.069 183.352,84.664 152.15,84.664 152.15,63.792 185.326,63.792 185.326,60.386 152.15,60.386 
		148.72,60.386 148.265,60.386 113.777,108.828 113.777,60.386 109.448,60.386 69.207,114.543 73.085,114.543 110.227,65.873 
		110.227,114.543 114.181,114.543 148.72,66.06 148.72,114.543 148.743,114.543 152.15,114.543 189.36,114.543 192.768,114.543 
		192.768,111.133 192.768,66.044 227.123,114.543 230.793,114.543 230.793,60.386 	"/>
	<polygon fill="#2A3491" points="86.93,121.543 110.113,121.543 110.113,172.295 113.524,172.295 113.524,121.543 135.748,121.543 
		135.748,118.138 86.93,118.138 	"/>
	<path fill="#2A3491" d="M130.435,145.213c0,3.792,0.544,7.435,1.619,10.824c1.078,3.42,2.688,6.453,4.778,9.021
		c2.106,2.588,4.751,4.66,7.866,6.154c3.12,1.492,6.741,2.25,10.765,2.25c4.031,0,7.654-0.758,10.768-2.25
		c3.117-1.494,5.764-3.566,7.87-6.154c2.087-2.568,3.696-5.6,4.778-9.021c1.072-3.395,1.619-7.037,1.619-10.824
		c0-3.786-0.547-7.427-1.619-10.824c-1.082-3.417-2.691-6.45-4.778-9.021c-2.104-2.587-4.747-4.662-7.858-6.187
		c-3.121-1.52-6.745-2.287-10.779-2.287c-4.029,0-7.649,0.767-10.769,2.287c-3.117,1.524-5.758,3.599-7.859,6.187
		c-2.093,2.571-3.703,5.604-4.781,9.021C130.979,137.784,130.435,141.427,130.435,145.213z M135.439,135.134
		c1.007-3.036,2.449-5.686,4.284-7.869c1.822-2.169,4.084-3.89,6.722-5.119c2.636-1.22,5.671-1.844,9.018-1.844
		c3.354,0,6.389,0.624,9.025,1.844c2.635,1.229,4.896,2.95,6.721,5.119c1.838,2.183,3.277,4.833,4.283,7.869
		c1.01,3.062,1.549,6.458,1.598,10.069c-0.049,3.639-0.588,7.036-1.598,10.092c-1.006,3.035-2.445,5.682-4.28,7.865
		c-1.827,2.176-4.089,3.902-6.724,5.117c-2.634,1.229-5.67,1.852-9.025,1.852c-3.35,0-6.385-0.623-9.018-1.852
		c-2.637-1.215-4.9-2.941-6.722-5.117c-1.835-2.184-3.277-4.83-4.284-7.865c-1.013-3.057-1.548-6.454-1.598-10.067
		C133.891,141.591,134.426,138.195,135.439,135.134z"/>
	<path fill="#2A3491" d="M209.904,147.573c2.139-0.643,4.011-1.612,5.562-2.888c1.568-1.277,2.816-2.895,3.701-4.804
		c0.888-1.898,1.334-4.089,1.334-6.515c0-5.001-1.513-8.845-4.506-11.41c-2.949-2.541-7.1-3.819-12.334-3.819H184.99v54.157h3.408
		v-23.767h12.044l20.48,23.767h4.501l-20.539-23.837C206.672,148.333,208.354,148.04,209.904,147.573z M188.398,145.122v-23.579
		h15.264c4.597,0,8.029,1.021,10.199,3.031c2.146,1.994,3.232,4.949,3.232,8.792c0,1.897-0.338,3.577-1.005,5
		c-0.669,1.42-1.599,2.653-2.781,3.658c-1.188,1.009-2.614,1.783-4.237,2.299c-1.65,0.531-3.467,0.799-5.408,0.799H188.398z"/>
	<path fill="#2A3491" d="M182.949,206.385c-1.68-1.02-3.672-1.84-5.92-2.445c-2.103-0.568-4.433-1.189-6.934-1.834
		c-2.245-0.537-4.463-1.057-6.596-1.537c-2.047-0.469-3.902-1.127-5.501-1.961c-1.544-0.811-2.81-1.871-3.766-3.16
		c-0.913-1.234-1.38-2.928-1.38-5.045c0-2.137,0.461-3.914,1.371-5.277c0.938-1.402,2.146-2.545,3.598-3.389
		c1.48-0.871,3.158-1.479,4.988-1.824c4.314-0.807,8.32-0.654,11.807,0.172c1.9,0.455,3.561,1.221,4.936,2.275
		c1.357,1.051,2.467,2.436,3.301,4.119c0.834,1.689,1.306,3.836,1.401,6.369l0.032,0.943h3.42l-0.047-1.023
		c-0.154-3.041-0.75-5.668-1.777-7.801c-1.042-2.152-2.455-3.92-4.2-5.254c-1.726-1.314-3.763-2.277-6.047-2.869
		c-2.247-0.58-4.727-0.869-7.374-0.869c-2.152,0-4.346,0.225-6.52,0.674c-2.223,0.461-4.256,1.238-6.051,2.316
		c-1.831,1.1-3.34,2.596-4.488,4.451c-1.169,1.875-1.756,4.227-1.756,6.986c0,2.711,0.569,4.971,1.688,6.703
		c1.107,1.709,2.584,3.1,4.398,4.123c1.753,0.99,3.74,1.773,5.904,2.328c2.088,0.533,4.213,1.055,6.301,1.537
		c2.001,0.488,4.113,0.969,6.279,1.43c2.074,0.443,3.993,1.107,5.687,1.965c1.634,0.832,2.999,1.971,4.044,3.367
		c1.014,1.363,1.524,3.266,1.524,5.676c0,1.943-0.387,3.371-1.347,4.922c-0.895,1.428-2.067,2.268-3.627,3.301
		c-2.339,1.553-5.715,2.05-8.225,2.209h-58.559v-23.064h31.222v-3.406h-31.222v-20.871h33.195v-3.406h-36.603v54.158h59.578
		l0.011-0.004c1.871-0.031,8.954-0.326,12.724-2.941c1.86-1.297,3.37-2.432,4.516-4.295c1.227-2.016,1.749-3.967,1.749-6.537
		c0-2.887-0.524-5.242-1.562-6.996C186.096,208.859,184.693,207.443,182.949,206.385z"/>
</g>
</svg>
