<?xml version="1.0" encoding="UTF-8"?>
<svg width="110px" height="116px" viewBox="0 0 110 116" version="1.1" xmlns="http://www.w3.org/2000/svg" xmlns:xlink="http://www.w3.org/1999/xlink">
    <!-- Generator: Sketch 50.2 (55047) - http://www.bohemiancoding.com/sketch -->
    <title>mentores</title>
    <desc>Created with Sketch.</desc>
    <defs></defs>
    <g id="Page-1" stroke="none" stroke-width="1" fill="none" fill-rule="evenodd">
        <g id="mentores" fill="#FFFFFF" fill-rule="nonzero">
            <path d="M56.4634654,37 L54.1439788,37 L54.1439788,3.85368772 L30.6165451,37 L27.9254655,37 L27.9254655,3.74810724 L2.64017646,37 L0,37 L27.3935276,0 L30.3416681,0 L30.3416681,33.0960764 L53.8198954,0 L56.4643138,0 L56.4643138,37 L56.4634654,37 Z M81.7937189,34.6712691 L81.7937189,0 L84.2922149,0 L107.677968,33.1377977 L107.677968,0 L110,0 L110,37 L107.502352,37 L84.1132055,3.86390519 L84.1132055,34.6712691 L84.1132055,37 L54.1287078,37 L54.1287078,0 L79.0483426,0 L79.0483426,2.32702796 L56.4498913,2.32702796 L56.4498913,16.5872052 L77.7044995,16.5872052 L77.7044995,18.9133817 L56.4498913,18.9133817 L56.4498913,34.6712691 L81.7937189,34.6712691 Z M28.0595104,1.33082499 L28.0993845,1.33082499 L26.5934998,3.30620182 L28.0595104,1.33082499 Z" id="Combined-Shape"></path>
            <polygon id="Shape" points="29.9760276 76 27.6701557 76 27.6701557 41.3261765 12 41.3261765 12 39 45 39 45 41.3261765 29.9760276 41.3261765"></polygon>
            <path d="M58.9987304,76 C56.2657639,76 53.8061786,75.4918376 51.6868388,74.4880703 C49.5708845,73.4851402 47.7748625,72.0929259 46.3444774,70.3541231 C44.9242488,68.6278778 43.8307237,66.5902051 43.0986035,64.294684 C42.3698688,62.0167434 42,59.5705316 42,57.0230222 C42,54.4796986 42.3698688,52.0326496 43.0986035,49.7521976 C43.8307237,47.4575136 44.9242488,45.4198409 46.3461701,43.6935956 C47.7731697,41.95563 49.5674989,40.5609041 51.6834532,39.5370448 C53.8027931,38.5156969 56.2606856,38 58.9987304,38 C61.7376217,38 64.1997461,38.5156969 66.3182395,39.5370448 C68.4308083,40.5609041 70.2259839,41.95563 71.6555226,43.6935956 C73.073212,45.4198409 74.1658908,47.4575136 74.9005501,49.7521976 C75.6284384,52.034324 76,54.4788614 76,57.0230222 C76,59.5671829 75.6292848,62.0133947 74.9005501,64.294684 C74.1658908,66.5918794 73.073212,68.6287149 71.6555226,70.3541231 C70.2251375,72.0920887 68.4282691,73.4843031 66.3114685,74.4880703 C64.1955142,75.4910004 61.7359289,76 58.9987304,76 Z M58.9987304,40.2896609 C56.7245028,40.2896609 54.6635633,40.7082461 52.8734659,41.5286731 C51.0825222,42.3532859 49.545493,43.5102553 48.3080829,44.9669318 C47.0613627,46.4336542 46.0829454,48.2134784 45.3982226,50.2519883 C44.7109606,52.3080787 44.3470165,54.5902051 44.3140076,57.0322311 C44.3470165,59.4583508 44.7109606,61.7404772 45.3982226,63.7940561 C46.0829454,65.8334031 47.0613627,67.611553 48.3080829,69.0782754 C49.545493,70.5399749 51.0816758,71.6986187 52.8734659,72.5156969 C54.6618705,73.3403098 56.7236564,73.7597321 58.9987304,73.7597321 C61.2763436,73.7597321 63.3389759,73.3403098 65.1273804,72.5156969 C66.9166314,71.6977815 68.4528142,70.5399749 69.6944562,69.0782754 C70.9411765,67.611553 71.917901,65.8334031 72.600931,63.7940561 C73.2873466,61.7404772 73.6529835,59.4583508 73.6859924,57.0146505 C73.6529835,54.5902051 73.2865002,52.3080787 72.600931,50.2519883 C71.917901,48.2126413 70.9411765,46.4328171 69.6927634,44.9669318 C68.4528142,43.5102553 66.9174778,42.3532859 65.1273804,41.5286731 C63.3372831,40.7082461 61.2754972,40.2896609 58.9987304,40.2896609 Z" id="Shape"></path>
            <path d="M69.7907658,113.661867 C71.484261,113.552812 73.7654905,113.211892 75.3445148,112.146142 C76.3952515,111.43829 77.1862461,110.860382 77.7906298,109.88153 C78.4378836,108.818043 78.6984663,107.83919 78.6984663,106.506412 C78.6984663,104.853903 78.3538247,103.547627 77.6704255,102.613228 C76.9643305,101.654038 76.0447257,100.872666 74.9418725,100.302452 C73.7995115,99.7142857 72.5058445,99.2594826 71.1071038,98.9551406 C69.6461595,98.6388301 68.2205199,98.3079865 66.871374,97.9754331 C65.4625462,97.6428796 64.0310225,97.2855343 62.6221947,96.91964 C61.1629316,96.5400675 59.821351,96.0023397 58.6394823,95.3235546 C57.4164248,94.6225422 56.4194858,93.6676265 55.6730425,92.4947132 C54.9181932,91.3055568 54.5340439,89.7573453 54.5340439,87.896243 C54.5340439,86.0043645 54.9299615,84.3903262 55.7192749,83.103712 C56.4942983,81.8324859 57.512252,80.8057593 58.7470778,80.0517435 C59.9566859,79.3131159 61.3276871,78.7788076 62.8281391,78.464207 C64.294127,78.1547357 65.7735643,78 67.2244215,78 C69.0106739,78 70.6834467,78.1991901 72.1990294,78.5967154 C73.7389891,79.0027897 75.1133527,79.6627672 76.277569,80.5655343 C77.4543941,81.48027 78.4067818,82.6925084 79.1095145,84.1689089 C79.8021602,85.6333408 80.2064836,87.4346007 80.3098761,89.5205399 L80.3409779,90.2215523 L78.0344007,90.2215523 L78.013386,89.576108 C77.94782,87.8372553 77.6309178,86.3651294 77.067723,85.2067492 C76.5062093,84.0517885 75.7572441,83.1028571 74.8418423,82.3804724 C73.9138317,81.6555231 72.7941666,81.1323285 71.5122678,80.8194376 C69.1611394,80.2526434 66.4586446,80.1474916 63.5476836,80.7014623 C62.314539,80.9382677 61.1839463,81.3563105 60.183645,81.952171 C59.205199,82.5317885 58.3889867,83.3165804 57.7585447,84.2783352 C57.1449144,85.2127334 56.8322152,86.4326659 56.8322152,87.8970979 C56.8322152,89.3504162 57.1474362,90.512216 57.7627476,91.3577053 C58.4083202,92.2425197 59.2615185,92.9700337 60.3021681,93.5257143 C61.3806442,94.0976378 62.6314412,94.5490214 64.0125295,94.8713161 C65.4507779,95.2013048 66.9461864,95.5569404 68.461769,95.9245444 C70.1479913,96.3665242 71.7190528,96.7939708 73.1388083,97.1829471 C74.6543909,97.5975703 75.9968121,98.1617998 77.1316077,98.8611024 C78.3067517,99.5869066 79.2524147,100.55892 79.9459009,101.751496 C80.6452713,102.954331 81,104.571789 81,106.551721 C81,108.314511 80.6469525,109.653273 79.8198125,111.034781 C79.0481515,112.313701 78.0285166,113.091654 76.7743573,113.981597 C74.2383248,115.77025 69.4685281,115.975285 68.1902818,115.997437 L68.1843746,116 L28,116 L28,78.8506187 L52.687269,78.8506187 L52.687269,81.1870416 L30.2990119,81.1870416 L30.2990119,95.5047919 L51.3574567,95.5047919 L51.3574567,97.84036 L30.2990119,97.84036 L30.2990119,113.661867 L69.7907658,113.661867 Z" id="Combined-Shape"></path>
            <path d="M106,76 L92.2844461,59.7150616 C93.4787313,59.629916 94.6014426,59.4289725 95.6359349,59.1096767 C97.0649158,58.6703256 98.3149621,58.0078932 99.3519512,57.1377057 C100.398927,56.2649638 101.232014,55.1606259 101.823747,53.8561961 C102.416312,52.5585778 102.714259,51.061719 102.714259,49.4039351 C102.714259,45.9878955 101.703902,43.3603038 99.7056593,41.6088597 C97.7365452,39.8735934 94.9643055,39 91.4688367,39 L79,39 L79,76 L81.2753838,76 L81.2753838,59.7627431 L89.3182911,59.7627431 L102.996394,76 L106,76 Z M81.2745515,41.3261765 L91.4680044,41.3261765 C94.537359,41.3261765 96.8293878,42.02437 98.2800074,43.3986193 C99.7131496,44.7600967 100.438043,46.7797492 100.438043,49.4047866 C100.438043,50.7007019 100.212502,51.8484639 99.7672462,52.8216776 C99.3203255,53.7923369 98.6994637,54.6327235 97.9096542,55.3198481 C97.1165156,56.0103786 96.1635842,56.538281 95.0799889,56.8907836 C93.9789162,57.2535036 92.7654892,57.4365666 91.4688367,57.4365666 L81.2753838,57.4365666 L81.2753838,41.3261765 L81.2745515,41.3261765 Z" id="Shape"></path>
        </g>
    </g>
</svg>