<?xml version="1.0" encoding="utf-8"?>
<!-- Generator: Adobe Illustrator 16.0.0, SVG Export Plug-In . SVG Version: 6.00 Build 0)  -->
<!DOCTYPE svg PUBLIC "-//W3C//DTD SVG 1.1//EN" "http://www.w3.org/Graphics/SVG/1.1/DTD/svg11.dtd">
<svg version="1.1" id="_x2014_ÎÓÈ_x5F_1" xmlns="http://www.w3.org/2000/svg" xmlns:xlink="http://www.w3.org/1999/xlink"
	 x="0px" y="0px" width="649.235px" height="749.674px" viewBox="0 0 649.235 749.674" enable-background="new 0 0 649.235 749.674"
	 xml:space="preserve">
<g>
	<path fill="#040404" d="M43.554,465.388c0-18.404,0-36.809,0-55.213c0-1.34,0-2.68,0-4.018c0-4.594,2.807-7.799,6.483-9.922
		c5.256-3.033,10.508-6.068,15.762-9.1c7.103-4.102,14.205-8.201,21.305-12.299l0,0c21.553-12.445,43.105-24.887,64.658-37.33
		c-0.002-16.762-0.004-33.521-0.008-50.283c-14.516-8.383-29.033-16.764-43.551-25.145c-17.17,9.912-34.341,19.824-51.512,29.738
		c-15.938,9.201-31.876,18.402-47.813,27.604c-1.16,0.67-2.32,1.34-3.48,2.01c-1.785,1.031-3.602,1.436-5.396,1.385v8.598
		c0,0.002,0,0.002,0,0.002c3.898-2.252,7.797-4.502,11.695-6.754c30.396-17.549,60.791-35.098,91.188-52.646
		c3.285-1.898,7.363-1.9,10.65,0c4.811,2.777,9.619,5.557,14.43,8.336c3.051,1.762,6.104,3.525,9.154,5.287
		c2.725,1.574,5.568,2.922,7.246,5.785c1.766,3.016,1.439,6.488,1.441,9.818c0,3.592,0.002,7.182,0.002,10.773
		c0.002,5.322,0.002,10.645,0.004,15.967c0,3.701-2.012,7.254-5.227,9.109c-5.674,3.275-11.348,6.553-17.021,9.828
		c-16.117,9.307-32.236,18.611-48.354,27.918h-0.002c-12.536,7.236-25.071,14.473-37.605,21.711c0,4.52,0,9.041,0,13.561
		c0.002,35.098,0.002,70.195,0.002,105.293c0,3.701-2.012,7.256-5.227,9.111c-4.812,2.775-9.623,5.551-14.434,8.328
		c-3.053,1.762-6.105,3.523-9.158,5.285c-2.766,1.596-5.422,3.438-8.785,3.438v8.5c14.518-8.379,29.035-16.76,43.553-25.139
		C43.554,505.079,43.554,485.233,43.554,465.388z"/>
	<path fill="#040404" d="M70.606,481.009c0-18.404,0-36.811,0-55.215c0-1.34,0-2.678,0-4.018c0-4.594,2.807-7.799,6.486-9.922
		c5.255-3.033,10.509-6.068,15.763-9.102c16.117-9.307,32.234-18.611,48.354-27.916c12.535-7.238,25.068-14.475,37.604-21.713
		c-0.002-27.172-0.002-54.346-0.004-81.52c-23.535-13.588-47.072-27.174-70.605-40.762c-17.172,9.912-34.341,19.824-51.512,29.736
		c-15.938,9.201-31.876,18.404-47.813,27.605c-1.16,0.67-2.32,1.34-3.48,2.01c-1.787,1.029-3.604,1.436-5.396,1.383v8.6
		c18.18-10.496,36.359-20.992,54.54-31.488c15.289-8.826,30.58-17.654,45.871-26.482c1.582-0.912,3.211-1.998,4.986-2.486
		c4.729-1.301,8.262,1.139,12.025,3.312c8.727,5.037,17.453,10.076,26.178,15.113c7.602,4.389,15.203,8.777,22.805,13.166
		c3.98,2.299,6.449,5.859,6.449,10.625c0.002,3.072,0.002,6.145,0.002,9.217c0.002,17.482,0.004,34.965,0.006,52.447
		c0,3.701-2.012,7.254-5.227,9.109c-5.672,3.275-11.348,6.551-17.02,9.828c-7.102,4.1-14.201,8.199-21.303,12.299l0,0
		c-21.553,12.443-43.105,24.887-64.66,37.33c0,4.52,0,9.041,0,13.561c0,35.098,0,70.193,0,105.291c0,3.701-2.012,7.256-5.227,9.111
		c-10.023,5.785-20.048,11.572-30.073,17.359c-7.602,4.389-15.203,8.775-22.805,13.164c-2.121,1.225-4.326,1.906-6.549,1.934v8.715
		c23.535-13.586,47.069-27.17,70.605-40.756C70.606,520.7,70.606,500.854,70.606,481.009z"/>
	<path fill="#040404" d="M108.203,605.679c-17.172,9.912-34.341,19.824-51.512,29.738c-15.938,9.201-31.876,18.402-47.813,27.604
		c-1.16,0.67-2.32,1.34-3.48,2.01c-1.787,1.029-3.604,1.436-5.396,1.383v8.6c18.18-10.496,36.359-20.992,54.54-31.488
		c15.289-8.826,30.58-17.654,45.871-26.482c1.582-0.912,3.211-1.998,4.986-2.486c4.729-1.301,8.262,1.139,12.025,3.312
		c8.727,5.037,17.453,10.076,26.178,15.113c7.602,4.389,15.203,8.779,22.805,13.166c3.98,2.299,6.449,5.859,6.449,10.627
		c0.002,3.07,0.002,6.143,0.002,9.215c0.002,17.482,0.004,34.965,0.006,52.445c0,3.703-2.012,7.256-5.227,9.111
		c-5.672,3.275-11.348,6.551-17.02,9.828c-7.102,4.1-14.201,8.199-21.303,12.299h11.895c12.535-7.236,25.068-14.475,37.604-21.713
		c-0.002-27.174-0.002-54.346-0.004-81.52C155.273,632.853,131.736,619.265,108.203,605.679z"/>
	<path fill="#040404" d="M124.705,677.677c-5.5-3.178-10.998-6.354-16.498-9.529c-3.896,2.25-7.795,4.5-11.693,6.75
		c-30.398,17.551-60.792,35.1-91.187,52.648c-1.645,0.949-3.486,1.424-5.326,1.424v8.518c0.463-0.268,0.924-0.535,1.387-0.801
		c3.436-1.984,6.873-3.969,10.309-5.953c8.775-5.066,17.549-10.131,26.324-15.197c21.62-12.482,43.243-24.967,64.862-37.449
		c9.963-5.752,19.08,6.334,14.613,14.336c-0.828,1.48-2.123,2.824-3.963,3.887c-5.674,3.275-11.348,6.551-17.021,9.828
		c-25.136,14.51-50.271,29.021-75.405,43.535h11.891c1.918-1.107,3.834-2.213,5.75-3.32c28.653-16.543,57.308-33.086,85.962-49.627
		C124.707,690.374,124.705,684.026,124.705,677.677z"/>
	<path fill="#040404" d="M151.754,662.06c-14.516-8.383-29.033-16.764-43.551-25.145c-17.17,9.912-34.341,19.826-51.512,29.738
		c-15.938,9.201-31.876,18.402-47.813,27.604c-1.16,0.672-2.32,1.34-3.48,2.01c-1.785,1.031-3.602,1.436-5.396,1.385v8.598v0.002
		c3.898-2.252,7.797-4.502,11.695-6.754c30.396-17.549,60.791-35.098,91.188-52.646c3.285-1.898,7.363-1.9,10.65,0
		c4.811,2.777,9.619,5.557,14.43,8.336c3.051,1.764,6.104,3.525,9.154,5.287c2.725,1.576,5.568,2.922,7.246,5.785
		c1.766,3.016,1.439,6.488,1.441,9.818c0,3.592,0.002,7.182,0.002,10.773c0.002,5.322,0.002,10.645,0.004,15.967
		c0,3.701-2.012,7.254-5.227,9.111c-5.674,3.275-11.348,6.551-17.021,9.826c-16.117,9.307-32.236,18.611-48.354,27.918h11.894
		c21.553-12.443,43.105-24.889,64.658-37.33C151.76,695.581,151.758,678.821,151.754,662.06z"/>
	<path fill="#040404" d="M626.891,624.007c-28.617-16.521-57.238-33.045-85.855-49.568c-3.898,2.252-7.797,4.502-11.697,6.754
		c-28.652,16.543-57.307,33.086-85.961,49.629c0,4.521,0,9.041,0,13.561c0,33.066,0,66.131,0,99.195
		c0.24,0.143,0.48,0.281,0.721,0.42c3.275,1.893,6.551,3.783,9.828,5.676h11.898c-0.914-0.527-1.826-1.055-2.74-1.582
		c-5.611-3.242-13.754-6.352-13.754-14.035c0-31.236-0.002-62.473-0.002-93.709c0-3.703,2.012-7.254,5.227-9.111
		c7.807-4.508,15.613-9.014,23.42-13.521c17.703-10.221,35.406-20.441,53.109-30.662c1.51-0.871,3.02-1.742,4.529-2.615
		c4.053-2.34,8.262-1.49,12.006,0.672c5.254,3.033,10.508,6.066,15.762,9.1c28.617,16.523,57.236,33.045,85.855,49.566v-8.598
		c-2.27-0.066-4.5-0.867-6.586-2.07C637.396,630.073,632.145,627.04,626.891,624.007z"/>
	<path fill="#040404" d="M530.477,556.163c0-4.52,0-9.041,0-13.562c0-33.064,0-66.131,0-99.197
		c-3.932-2.27-7.863-4.539-11.795-6.811c-28.621-16.523-57.242-33.047-85.861-49.572c-17.17,9.912-34.338,19.824-51.506,29.736
		c-15.939,9.203-31.879,18.406-47.818,27.607c-1.16,0.67-2.32,1.34-3.48,2.01c-4.043,2.334-8.248,1.469-11.982-0.686
		c-5.254-3.033-10.508-6.068-15.76-9.1c-28.619-16.523-57.238-33.047-85.857-49.568c-3.898,2.25-7.797,4.502-11.695,6.752
		c-28.654,16.543-57.307,33.088-85.961,49.631c0,4.521,0,9.041,0,13.561c-0.002,33.066-0.004,66.131-0.006,99.197
		c17.205,9.934,34.408,19.865,51.611,29.799c15.939,9.201,31.879,18.404,47.818,27.605c1.16,0.672,2.32,1.34,3.48,2.01
		c3.975,2.295,5.297,6.369,5.297,10.607c0,6.066,0,12.133,0.002,18.199c0.002,33.064,0.004,66.131,0.006,99.197
		c3.518,2.031,7.037,4.062,10.555,6.094h11.881c-3.756-2.17-7.51-4.338-11.268-6.506c-3.215-1.855-5.225-5.408-5.225-9.109
		c0-6.553,0-13.104,0-19.656c0-33.066,0-66.133,0-99.197c-3.934-2.271-7.865-4.541-11.797-6.812
		c-30.396-17.549-60.791-35.098-91.186-52.646c-3.215-1.855-5.227-5.408-5.227-9.109c0-9.885,0.002-19.768,0.002-29.65
		c0.002-20.01,0.004-40.02,0.004-60.029c0-1.344,0.002-2.686,0.002-4.027c0-5.438,3.666-8.211,7.721-10.553
		c6.977-4.025,13.951-8.053,20.926-12.08c17.703-10.221,35.406-20.441,53.109-30.662c1.51-0.871,3.02-1.744,4.527-2.615
		c4.057-2.34,8.264-1.488,12.008,0.672c5.254,3.033,10.508,6.066,15.762,9.1c28.617,16.521,57.238,33.045,85.855,49.566
		c3.898-2.25,7.797-4.502,11.695-6.752c30.396-17.549,60.791-35.098,91.186-52.646c1.746-1.008,3.463-1.455,5.088-1.486
		c0.082-0.002,0.162-0.01,0.242-0.01c0.062,0,0.123,0.004,0.186,0.008c1.639,0.021,3.373,0.471,5.135,1.488
		c8.559,4.941,17.117,9.885,25.676,14.828c17.33,10.004,34.658,20.012,51.988,30.018c1.162,0.672,2.324,1.342,3.486,2.014
		c4.691,2.709,5.227,7.322,5.227,11.992c0,8.055,0,16.107,0,24.162c0,20.443,0,40.885,0,61.326c0,1.742,0,3.486,0,5.229
		c0,4.605-2.797,7.818-6.486,9.949c-5.254,3.033-10.506,6.066-15.76,9.1c-28.652,16.543-57.303,33.086-85.955,49.629
		c0,4.52,0,9.041,0,13.561c0,35.098,0,70.195,0,105.293c0,3.703-2.012,7.256-5.227,9.111c-0.031,0.018-0.064,0.035-0.096,0.055
		c-3.725,2.15-7.447,4.299-11.172,6.449h11.883c0.893-0.518,1.787-1.033,2.68-1.549c2.627-1.516,5.254-3.033,7.881-4.551
		c0-34.572,0-69.145,0-103.719c0-4.934,0-9.865,0-14.797c0-7.361,5.912-9.836,11.178-12.877
		c16.963-9.793,33.924-19.586,50.887-29.379C499.719,573.923,515.098,565.044,530.477,556.163z"/>
	<path fill="#040404" d="M205.859,630.821c-3.932-2.27-7.863-4.541-11.797-6.811c-28.619-16.525-57.24-33.049-85.861-49.572
		c-17.168,9.912-34.337,19.824-51.508,29.736c-15.937,9.205-31.876,18.406-47.815,27.609c-1.16,0.67-2.32,1.338-3.48,2.008
		c-1.785,1.031-3.602,1.438-5.396,1.385v8.598c5.162-2.98,10.326-5.961,15.49-8.943c19.232-11.104,38.464-22.207,57.699-33.311
		c7.499-4.328,14.997-8.658,22.497-12.988c5.475-3.16,11.396-7.869,17.936-4.094c14.307,8.26,28.611,16.516,42.916,24.775
		c9.08,5.242,18.16,10.484,27.24,15.727c5.994,3.461,16.129,7.238,16.131,15.406c0.002,31.234,0.004,62.471,0.006,93.707
		c0,3.703-2.012,7.256-5.227,9.111c-3.756,2.168-7.514,4.338-11.271,6.508h11.895c3.518-2.031,7.035-4.062,10.553-6.094
		c0-4.521,0-9.041,0-13.561C205.863,696.952,205.861,663.888,205.859,630.821z"/>
	<path fill="#040404" d="M97.652,556.159c0-19.846,0.002-39.691,0.002-59.535c0.002-18.404,0.002-36.809,0.004-55.213
		c0-1.34,0-2.678,0-4.018c0-4.592,2.807-7.797,6.486-9.922c5.254-3.033,10.508-6.066,15.762-9.1
		c25.135-14.512,50.268-29.025,75.402-43.535h0.004c3.518-2.031,7.035-4.062,10.553-6.094c0-4.521,0-9.041,0-13.561
		c-0.002-33.066-0.004-66.131-0.006-99.197c-3.932-2.27-7.863-4.541-11.797-6.811c-28.619-16.525-57.24-33.049-85.861-49.572
		c-17.168,9.912-34.337,19.824-51.508,29.736c-15.937,9.203-31.876,18.406-47.815,27.607c-1.16,0.67-2.32,1.34-3.48,2.01
		c-1.785,1.031-3.602,1.436-5.396,1.385v8.598c5.162-2.98,10.326-5.963,15.49-8.943c19.232-11.104,38.464-22.207,57.699-33.311
		c7.499-4.328,14.997-8.658,22.497-12.988c5.475-3.16,11.396-7.871,17.936-4.094c14.307,8.258,28.611,16.516,42.916,24.775
		c9.08,5.242,18.16,10.484,27.24,15.727c5.994,3.459,16.129,7.238,16.131,15.406c0.002,31.234,0.004,62.471,0.006,93.707
		c0,3.703-2.012,7.256-5.227,9.111c-3.756,2.168-7.514,4.338-11.271,6.508c-1.916,1.107-3.832,2.211-5.748,3.318
		c-28.654,16.543-57.307,33.088-85.961,49.631c0,4.52,0,9.041,0,13.561c0,35.098,0,70.195,0,105.293
		c0,3.703-2.012,7.256-5.227,9.111c-0.031,0.018-0.064,0.037-0.096,0.055c-14.306,8.258-28.611,16.516-42.917,24.771
		c-9.078,5.242-18.16,10.484-27.238,15.727c-4.588,2.648-10.525,7.26-16.23,7.541v8.693c3.898-2.252,7.797-4.502,11.695-6.752
		C40.349,589.243,68.998,572.702,97.652,556.159z"/>
	<path fill="#040404" d="M417.471,590.173c28.65-16.543,57.303-33.086,85.953-49.629c0-27.174,0-54.35,0-81.523
		c-23.533-13.588-47.066-27.178-70.598-40.766c-17.172,9.914-34.342,19.826-51.512,29.74c-15.939,9.201-31.879,18.404-47.818,27.605
		c-1.158,0.672-2.318,1.34-3.479,2.01c-4.045,2.334-8.25,1.471-11.982-0.686c-5.254-3.033-10.508-6.066-15.762-9.1
		c-28.619-16.521-57.238-33.043-85.857-49.564c-23.533,13.588-47.068,27.174-70.604,40.762c-0.002,27.172-0.004,54.346-0.006,81.52
		c17.203,9.932,34.406,19.865,51.611,29.799c15.939,9.203,31.879,18.404,47.816,27.607c1.162,0.67,2.322,1.34,3.482,2.01
		c3.975,2.293,5.297,6.367,5.297,10.607c0,6.064,0,12.133,0,18.199c0,33.064,0,66.133,0,99.199
		c12.537,7.234,25.072,14.473,37.607,21.709h11.896c-12.775-7.375-25.553-14.75-38.328-22.125c-3.215-1.855-5.227-5.408-5.227-9.111
		c0-6.551,0-13.102,0-19.654c0-33.064,0-66.133,0-99.199c-3.932-2.27-7.863-4.539-11.795-6.809
		c-30.396-17.549-60.791-35.098-91.188-52.646c-3.213-1.854-5.227-5.408-5.227-9.109c0.002-11.576,0.004-23.15,0.006-34.727
		c0-7.201,0.002-14.4,0.002-21.604c0.002-5.811-0.623-11.875,5.447-15.381c15.793-9.117,31.586-18.234,47.379-27.352
		c2.121-1.227,4.242-2.449,6.363-3.676c4.074-2.35,8.285-1.529,12.053,0.646c5.252,3.033,10.506,6.066,15.76,9.1
		c28.619,16.521,57.236,33.045,85.855,49.566c3.896-2.25,7.795-4.5,11.695-6.75c30.393-17.547,60.787-35.094,91.182-52.641
		c1.754-1.012,3.479-1.461,5.109-1.488c0.074-0.002,0.145-0.008,0.215-0.008c0.072,0,0.143,0.006,0.215,0.008
		c1.631,0.027,3.357,0.477,5.111,1.488c10.023,5.787,20.049,11.574,30.072,17.361c7.602,4.389,15.203,8.777,22.805,13.168
		c3.98,2.297,6.449,5.857,6.449,10.623c0,3.074,0,6.145,0,9.217c0.002,17.484,0.002,34.965,0.002,52.449
		c0,3.701-2.012,7.254-5.227,9.111c-5.674,3.273-11.346,6.551-17.02,9.826c-28.652,16.543-57.303,33.084-85.955,49.625
		c0,4.521,0,9.043,0,13.562c0,35.098,0,70.195-0.002,105.291c0,3.703-2.01,7.256-5.225,9.111
		c-10.023,5.787-20.049,11.574-30.074,17.361c-2.75,1.588-5.502,3.176-8.252,4.764h11.896c12.535-7.236,25.07-14.473,37.605-21.709
		c0-19.846,0.002-39.691,0.002-59.537c0-18.404,0-36.811,0-55.215c0-1.338,0-2.678,0-4.018c0-4.594,2.807-7.799,6.486-9.922
		C406.965,596.239,412.217,593.206,417.471,590.173z"/>
	<path fill="#040404" d="M626.891,717.718c-28.621-16.523-57.24-33.047-85.861-49.572c-5.498,3.178-10.996,6.354-16.494,9.531
		c0,6.35,0,12.699,0,19.051c17.203,9.932,34.406,19.865,51.609,29.797c13.363,7.715,26.729,15.432,40.094,23.148h11.893
		c-0.414-0.24-0.828-0.479-1.24-0.717c-30.396-17.549-60.793-35.098-91.188-52.646c-3.68-2.125-5.174-5.367-5.127-8.613
		c0.104-7.139,7.66-14.295,15.777-9.609c5.674,3.275,11.348,6.551,17.021,9.828c28.621,16.523,57.242,33.049,85.861,49.572v-8.518
		c-1.84,0-3.682-0.475-5.324-1.424C638.238,724.271,632.564,720.993,626.891,717.718z"/>
	<path fill="#040404" d="M626.891,655.245c-28.619-16.523-57.238-33.045-85.857-49.568c-23.533,13.588-47.068,27.176-70.604,40.764
		c0.002,27.174,0.002,54.348,0.004,81.521c12.533,7.236,25.064,14.475,37.6,21.711h11.893c-7.842-4.527-15.684-9.057-23.525-13.584
		c-4.719-2.725-9.438-5.449-14.158-8.174c-7.23-4.176-5.859-12.447-5.859-19.504c-0.002-17.48-0.002-34.965-0.002-52.447
		c0-3.701,2.01-7.254,5.225-9.109c0.074-0.043,0.146-0.086,0.221-0.127c15.793-9.119,31.586-18.236,47.379-27.355
		c2.121-1.223,4.242-2.447,6.363-3.674c4.072-2.352,8.285-1.527,12.053,0.646c5.252,3.033,10.506,6.066,15.76,9.1
		c28.619,16.523,57.236,33.047,85.855,49.568v-8.6c-2.27-0.066-4.5-0.865-6.586-2.07
		C637.396,661.312,632.145,658.278,626.891,655.245z"/>
	<path fill="#040404" d="M626.891,686.481c-28.617-16.521-57.238-33.045-85.855-49.568c-14.518,8.381-29.035,16.764-43.553,25.145
		c0,16.762,0,33.523,0.002,50.287c17.203,9.932,34.404,19.863,51.607,29.797c4.348,2.51,8.695,5.02,13.043,7.531h11.893
		c-17.424-10.061-34.846-20.121-52.27-30.18c-4.271-2.465-8.543-4.932-12.814-7.396c-4.85-2.801-5.51-7.441-5.51-12.348
		c0-5.225,0-10.449,0-15.674c0-4.057,0-8.113,0-12.17c0-6.627,4.762-9.164,9.564-11.938c7.568-4.373,15.137-8.746,22.705-13.119
		c3.285-1.898,7.363-1.896,10.65,0c5.674,3.277,11.348,6.553,17.021,9.828c28.621,16.523,57.242,33.047,85.861,49.572v-8.518
		c-1.84,0-3.682-0.473-5.324-1.422C638.238,693.032,632.564,689.757,626.891,686.481z"/>
	<path fill="#040404" d="M302.82,568.72c3.975,2.297,5.297,6.369,5.297,10.607c0,6.068,0,12.135,0,18.201
		c0,33.064,0,66.131,0.002,99.197c5.498,3.174,11,6.346,16.5,9.521c5.5-3.174,11-6.348,16.5-9.521c0-4.521,0-9.041,0-13.561
		c0-35.098,0-70.195-0.002-105.291c0-3.703,2.012-7.256,5.227-9.111c5.674-3.275,11.346-6.551,17.021-9.826
		c28.65-16.543,57.303-33.086,85.955-49.629c0-6.35,0-12.699,0-19.051c-5.498-3.176-10.996-6.352-16.494-9.529
		c-3.898,2.252-7.797,4.502-11.695,6.752c-30.395,17.549-60.791,35.1-91.186,52.648c-3.289,1.896-7.365,1.896-10.652,0
		c-5.674-3.277-11.348-6.553-17.021-9.828c-28.619-16.523-57.24-33.047-85.859-49.57c-5.498,3.176-10.998,6.354-16.496,9.529
		c-0.002,6.35-0.002,12.699-0.004,19.049c17.203,9.932,34.406,19.863,51.611,29.797c15.938,9.201,31.877,18.404,47.816,27.607
		C300.5,567.382,301.658,568.052,302.82,568.72z M211.086,508.892c-5.521-3.189-6.119-8.891-3.982-13.346
		c2.422-5.049,8.361-8.498,14.633-4.877c5.674,3.275,11.348,6.551,17.021,9.828c28.621,16.523,57.242,33.047,85.861,49.57
		c3.898-2.25,7.797-4.502,11.695-6.752c2.549-1.473,5.098-2.943,7.645-4.414c27.848-16.078,55.695-32.154,83.543-48.232
		c10.699-6.178,20.426,8.223,13.389,16.039c-0.729,0.809-1.637,1.547-2.74,2.184c-5.674,3.275-11.348,6.551-17.021,9.826
		c-21.309,12.303-42.615,24.605-63.924,36.908c-7.344,4.24-14.689,8.48-22.035,12.721c0,4.521,0,9.041,0,13.561
		c0,35.1,0,70.197,0,105.295c0,12.334-17.332,13.488-20.58,3.467c-0.338-1.035-0.523-2.193-0.523-3.469c0-6.551,0-13.104,0-19.654
		c0-33.066,0-66.133,0-99.199c-3.932-2.27-7.863-4.539-11.795-6.811C271.877,543.989,241.48,526.44,211.086,508.892z"/>
	<path fill="#040404" d="M281.064,712.343c14.52,8.381,29.037,16.76,43.555,25.141c14.518-8.381,29.033-16.76,43.551-25.139
		c0-19.848,0.002-39.693,0.002-59.537c0-18.406,0-36.811,0-55.215c0-1.34,0-2.678,0-4.018c0-4.594,2.809-7.799,6.486-9.922
		c5.252-3.033,10.506-6.066,15.76-9.1c28.652-16.543,57.303-33.084,85.953-49.627c0-16.762,0-33.523,0-50.287
		c-14.518-8.379-29.033-16.762-43.551-25.141c-17.17,9.912-34.34,19.824-51.51,29.736c-15.939,9.201-31.877,18.402-47.814,27.604
		c-1.16,0.67-2.32,1.34-3.48,2.01c-4.045,2.334-8.25,1.469-11.982-0.688c-5.254-3.031-10.508-6.066-15.76-9.1
		c-28.619-16.521-57.236-33.043-85.855-49.566c-14.518,8.381-29.035,16.764-43.553,25.145c-0.002,16.762-0.006,33.523-0.008,50.285
		c3.932,2.27,7.863,4.539,11.795,6.809c30.396,17.551,60.791,35.098,91.188,52.646c3.215,1.855,5.225,5.408,5.225,9.111
		c0,6.551,0,13.102,0,19.654C281.064,646.212,281.064,679.278,281.064,712.343z M275.219,577.157
		c-30.395-17.549-60.789-35.1-91.186-52.646c-3.213-1.857-5.227-5.41-5.225-9.111c0-5.555,0.002-11.109,0.004-16.664
		c0-3.525,0.002-7.049,0.002-10.574c0-3.193-0.264-6.41,1.441-9.318c1.74-2.971,4.834-4.393,7.676-6.033
		c3.109-1.797,6.219-3.594,9.328-5.391c4.609-2.662,9.217-5.324,13.824-7.986c3.287-1.9,7.365-1.898,10.652,0
		c5.674,3.275,11.348,6.551,17.021,9.826c28.619,16.525,57.24,33.049,85.861,49.572c3.898-2.25,7.797-4.502,11.695-6.754
		c30.396-17.547,60.791-35.096,91.188-52.646c1.732-1,3.436-1.447,5.049-1.484c0.098-0.004,0.193-0.012,0.291-0.014
		c0.047,0.002,0.092,0.004,0.137,0.006c1.65,0.018,3.396,0.467,5.174,1.492c0.443,0.258,0.889,0.514,1.332,0.77
		c8.217,4.748,16.432,9.494,24.648,14.24c3.615,2.088,6.291,5.316,6.291,9.746c0,1.018,0,2.035,0,3.051
		c0,5.225-0.002,10.449-0.002,15.674c0,4.059,0,8.113,0,12.17c0,4.688-2.709,7.979-6.486,10.158
		c-5.254,3.033-10.506,6.066-15.762,9.1c-28.65,16.543-57.303,33.084-85.953,49.627c0,4.521,0,9.041,0,13.562
		c0,35.096,0,70.195,0,105.291c0,3.703-2.01,7.256-5.225,9.111c-4.812,2.775-9.623,5.553-14.434,8.328
		c-3.053,1.762-6.105,3.523-9.158,5.285c-2.766,1.596-5.422,3.438-8.785,3.438c-3.486,0-6.336-2.023-9.217-3.686
		c-3.111-1.795-6.221-3.59-9.332-5.385c-4.609-2.662-9.219-5.32-13.828-7.98c-3.215-1.855-5.227-5.408-5.227-9.111
		c0-6.551,0-13.104,0-19.654c0-33.066,0-66.131,0-99.199C283.084,581.696,279.152,579.427,275.219,577.157z"/>
	<path fill="#040404" d="M16.501,495.747c0-35.098,0-70.195,0-105.293c0-3.703,2.012-7.254,5.227-9.111
		c3.756-2.168,7.514-4.338,11.27-6.506c1.918-1.107,3.834-2.213,5.75-3.32c28.653-16.543,57.308-33.086,85.962-49.627
		c-0.002-6.352-0.004-12.699-0.004-19.049c-5.5-3.178-10.998-6.354-16.498-9.529c-3.896,2.25-7.795,4.5-11.693,6.75
		c-30.398,17.551-60.792,35.1-91.187,52.648c-1.645,0.949-3.486,1.424-5.326,1.424v8.518c0.463-0.268,0.924-0.535,1.387-0.801
		c3.436-1.984,6.873-3.969,10.309-5.953c8.775-5.066,17.549-10.131,26.324-15.197c21.62-12.484,43.243-24.967,64.862-37.449
		c9.963-5.752,19.08,6.334,14.613,14.336c-0.828,1.482-2.123,2.824-3.963,3.887c-5.674,3.275-11.348,6.551-17.021,9.828
		c-25.136,14.51-50.271,29.021-75.405,43.535c-3.52,2.031-7.037,4.061-10.555,6.094c0,4.52,0,9.039,0,13.561
		c0,35.096,0,70.195,0,105.291c0,1.703-0.33,3.191-0.908,4.467c-1.73,3.828-5.686,5.74-9.643,5.742v8.836
		c5.5-3.172,11-6.348,16.5-9.521C16.501,504.786,16.501,500.267,16.501,495.747z"/>
	<path fill="#040404" d="M630.688,157.655c-4.609-2.66-9.219-5.32-13.828-7.98c-3.215-1.854-5.227-5.408-5.227-9.109
		c0-6.553,0-13.104,0-19.656c0-33.064,0-66.129,0-99.197c-3.932-2.27-7.863-4.539-11.795-6.811
		c-8.605-4.967-17.209-9.934-25.812-14.902h-11.891c12.773,7.375,25.549,14.752,38.322,22.127c3.215,1.855,5.227,5.406,5.227,9.109
		c0,6.553,0,13.104,0,19.658c0,33.066,0,66.129,0,99.197c14.518,8.379,29.035,16.758,43.553,25.137l0,0v-8.5
		c-3.486,0-6.336-2.025-9.217-3.688C636.908,161.245,633.799,159.45,630.688,157.655z"/>
	<path fill="#040404" d="M43.554,90.554c0-18.404,0-36.809,0-55.215c0-1.34,0-2.68,0-4.018c0-4.594,2.807-7.799,6.483-9.924
		c5.256-3.033,10.508-6.066,15.762-9.098c7.103-4.102,14.205-8.201,21.305-12.301H75.208C62.672,7.237,50.137,14.474,37.603,21.712
		c0,4.52,0,9.039,0,13.561c0.002,35.1,0.002,70.195,0.002,105.293c0,3.701-2.012,7.256-5.227,9.111
		c-4.812,2.775-9.623,5.551-14.434,8.328c-3.053,1.762-6.105,3.523-9.158,5.285c-2.766,1.596-5.422,3.436-8.785,3.438v8.5
		c14.518-8.379,29.035-16.76,43.553-25.139C43.554,130.243,43.554,110.397,43.554,90.554z"/>
	<path fill="#040404" d="M70.606,106.173c0-18.404,0-36.809,0-55.213c0-1.34,0-2.68,0-4.02c0-4.594,2.807-7.799,6.486-9.922
		c5.255-3.035,10.509-6.068,15.763-9.102c16.117-9.307,32.234-18.611,48.354-27.918h-11.895
		c-21.553,12.445-43.105,24.887-64.66,37.332c0,4.52,0,9.039,0,13.562c0,35.096,0,70.191,0,105.289c0,3.701-2.012,7.254-5.227,9.111
		c-10.023,5.785-20.048,11.572-30.073,17.359c-7.602,4.389-15.203,8.775-22.805,13.164c-2.121,1.225-4.326,1.906-6.549,1.934v8.715
		c23.535-13.586,47.069-27.17,70.605-40.756C70.606,145.864,70.606,126.019,70.606,106.173z"/>
	<path fill="#040404" d="M638.686,124.948c0,0,0,0,0-0.002c0-6.551,0-13.102,0-19.652v-0.002c0-33.064-0.002-66.133-0.002-99.199
		c-3.518-2.031-7.037-4.062-10.555-6.094h-11.893c2.572,1.486,5.146,2.973,7.721,4.459c1.16,0.668,2.32,1.34,3.48,2.008
		c3.975,2.297,5.297,6.369,5.297,10.607c0,6.066,0,12.135,0,18.199c0,33.068,0,66.133,0,99.197c5.502,3.174,11.002,6.348,16.5,9.521
		c0.002,0,0.002,0,0.002,0v-8.836C643.961,135.155,638.686,131.753,638.686,124.948z"/>
	<path fill="#040404" d="M626.891,249.171c-28.617-16.521-57.238-33.045-85.855-49.568c-3.898,2.252-7.797,4.502-11.697,6.754
		c-28.652,16.543-57.307,33.086-85.961,49.629c0,4.52,0,9.041,0,13.561c0,33.066,0,66.131,0,99.195
		c0.24,0.141,0.48,0.281,0.721,0.42c3.275,1.893,6.551,3.783,9.828,5.676c13.686,7.9,27.371,15.803,41.059,23.705
		c15.939,9.201,31.879,18.404,47.816,27.607c1.16,0.668,2.32,1.338,3.48,2.008c3.975,2.297,5.297,6.369,5.297,10.607
		c0,6.066,0,12.133,0,18.199c0,33.064,0,66.129,0,99.193c3.936,2.271,7.869,4.541,11.803,6.812
		c28.619,16.523,57.236,33.047,85.855,49.568v-8.693c-1.814,0.09-3.607-0.256-5.324-1.246
		c-27.053-15.617-54.105-31.232-81.156-46.85c-3.215-1.855-5.227-5.408-5.227-9.109c0-6.551,0-13.104,0-19.656
		c0-33.064-0.002-66.131-0.002-99.199c-3.932-2.27-7.863-4.539-11.795-6.809c-26.637-15.381-53.275-30.76-79.912-46.139h0.004
		c-0.914-0.527-1.826-1.055-2.74-1.582c-5.611-3.242-13.754-6.352-13.754-14.035c0-31.236-0.002-62.473-0.002-93.709
		c0-3.703,2.012-7.254,5.227-9.111c7.807-4.508,15.613-9.014,23.42-13.521c17.703-10.221,35.406-20.441,53.109-30.662
		c1.51-0.871,3.02-1.744,4.529-2.615c4.053-2.34,8.262-1.49,12.006,0.672c5.254,3.033,10.508,6.066,15.762,9.1
		c28.617,16.523,57.236,33.045,85.855,49.566v-8.598c-2.27-0.066-4.5-0.867-6.586-2.07
		C637.396,255.237,632.145,252.204,626.891,249.171z"/>
	<path fill="#040404" d="M635.23,191.511c-15.141-8.738-30.281-17.477-45.424-26.217c-3.213-1.855-5.225-5.408-5.225-9.109
		c0-6.551,0-13.104,0-19.656c0-33.066,0-66.131,0-99.199c-3.932-2.271-7.865-4.541-11.797-6.811
		c-17.621-10.172-35.242-20.346-52.863-30.52h-11.893c4.668,2.695,9.338,5.391,14.006,8.088
		c15.939,9.203,31.879,18.404,47.816,27.607c1.16,0.67,2.32,1.34,3.48,2.01c3.975,2.295,5.297,6.369,5.297,10.607
		c0,6.068,0,12.135,0,18.201c0.002,33.064,0.002,66.131,0.002,99.197c23.535,13.584,47.07,27.17,70.605,40.756l0,0v-8.715
		c-2.01,0.025-4.035-0.482-6.025-1.631C640.551,194.583,637.889,193.048,635.23,191.511z"/>
	<path fill="#040404" d="M118.76,82.128c-0.002,33.064-0.004,66.131-0.006,99.197c17.205,9.932,34.408,19.865,51.611,29.797
		c15.939,9.203,31.879,18.406,47.818,27.607c1.16,0.67,2.32,1.34,3.48,2.01c3.975,2.295,5.297,6.367,5.297,10.607
		c0,6.066,0,12.133,0.002,18.199c0.002,33.064,0.004,66.131,0.006,99.197c3.518,2.029,7.037,4.062,10.555,6.094l0,0
		c0.414,0.238,0.826,0.477,1.238,0.715c28.619,16.521,57.238,33.045,85.857,49.568c3.898-2.252,7.797-4.502,11.695-6.752
		c25.133-14.512,50.266-29.021,75.4-43.531c0.893-0.518,1.787-1.033,2.68-1.549c2.627-1.516,5.254-3.033,7.881-4.549
		c0-34.574,0-69.146,0-103.721c0-4.932,0-9.865,0-14.797c0-7.363,5.912-9.836,11.178-12.877
		c16.963-9.793,33.924-19.586,50.887-29.381c15.379-8.879,30.758-17.756,46.137-26.637c0-4.52,0-9.041,0-13.562
		c0-33.066,0-66.131,0-99.195c-3.932-2.27-7.863-4.541-11.795-6.811c-28.621-16.525-57.242-33.051-85.861-49.574
		c-17.17,9.912-34.338,19.824-51.506,29.736c-15.939,9.205-31.879,18.408-47.818,27.609c-1.16,0.67-2.32,1.34-3.48,2.01
		c-4.043,2.334-8.248,1.469-11.982-0.686c-5.254-3.033-10.508-6.068-15.76-9.1c-28.619-16.525-57.238-33.049-85.857-49.57
		c-3.898,2.25-7.797,4.502-11.695,6.752c-28.654,16.543-57.307,33.09-85.961,49.633C118.76,73.091,118.76,77.608,118.76,82.128z
		 M124.705,142.149c0.002-20.01,0.004-40.02,0.004-60.031c0-1.342,0.002-2.684,0.002-4.025c0-5.436,3.666-8.209,7.721-10.551
		c6.977-4.027,13.951-8.053,20.926-12.08c17.703-10.223,35.406-20.443,53.109-30.664c1.51-0.871,3.02-1.744,4.527-2.615
		c4.057-2.34,8.264-1.488,12.008,0.672c5.254,3.033,10.508,6.066,15.762,9.1c28.617,16.523,57.238,33.045,85.855,49.566
		c3.898-2.25,7.797-4.502,11.695-6.752c30.396-17.549,60.791-35.098,91.186-52.646c1.746-1.008,3.463-1.455,5.088-1.488
		c0.082,0,0.162-0.008,0.242-0.008c0.062,0,0.123,0.004,0.186,0.008c1.639,0.021,3.373,0.471,5.135,1.488
		c8.559,4.941,17.117,9.885,25.676,14.826c17.33,10.006,34.658,20.016,51.988,30.021c1.162,0.67,2.324,1.342,3.486,2.014
		c4.691,2.709,5.227,7.318,5.227,11.99c0,8.057,0,16.107,0,24.162c0,20.441,0,40.883,0,61.326c0,1.742,0,3.486,0,5.229
		c0,4.605-2.797,7.818-6.486,9.949c-5.254,3.033-10.506,6.066-15.76,9.1c-28.652,16.543-57.303,33.086-85.955,49.629
		c0,4.52,0,9.041,0,13.561c0,35.098,0,70.195,0,105.293c0,3.703-2.012,7.256-5.227,9.111c-0.031,0.018-0.064,0.035-0.096,0.055
		c-3.725,2.148-7.447,4.299-11.172,6.449h-0.016c-23.291,13.445-46.582,26.893-69.871,40.342c-3.289,1.896-7.365,1.896-10.652,0
		c-23.291-13.449-46.582-26.896-69.875-40.342h-0.014c-3.756-2.17-7.51-4.338-11.268-6.506c-3.215-1.855-5.225-5.408-5.225-9.109
		c0-6.553,0-13.104,0-19.656c0-33.064,0-66.133,0-99.197c-3.934-2.271-7.865-4.541-11.797-6.812
		c-30.396-17.549-60.791-35.098-91.186-52.646c-3.215-1.855-5.227-5.408-5.227-9.111
		C124.703,161.915,124.705,152.032,124.705,142.149z"/>
	<path fill="#040404" d="M97.652,181.323c0-19.846,0.002-39.691,0.002-59.535c0.002-18.404,0.002-36.807,0.004-55.211
		c0-1.34,0-2.678,0-4.018c0-4.594,2.807-7.799,6.486-9.922c5.254-3.033,10.508-6.068,15.762-9.102
		c25.135-14.514,50.268-29.025,75.402-43.537h-11.891c-1.916,1.107-3.832,2.213-5.748,3.32
		c-28.654,16.543-57.307,33.088-85.961,49.633c0,4.52,0,9.039,0,13.561c0,35.096,0,70.193,0,105.291
		c0,3.703-2.012,7.256-5.227,9.111c-0.031,0.018-0.064,0.035-0.096,0.055c-14.306,8.258-28.611,16.516-42.917,24.771
		c-9.078,5.242-18.16,10.484-27.238,15.727c-4.588,2.646-10.525,7.26-16.23,7.541v8.693c3.898-2.252,7.797-4.502,11.695-6.752
		C40.349,214.407,68.998,197.864,97.652,181.323z"/>
	<path fill="#040404" d="M245.234,223.112c1.162,0.67,2.322,1.338,3.482,2.01c3.975,2.293,5.297,6.367,5.297,10.607
		c0,6.064,0,12.133,0,18.199c0,33.066,0,66.133,0,99.199c12.537,7.236,25.072,14.471,37.607,21.709h0.01
		c10.996,6.348,21.992,12.695,32.988,19.045c10.996-6.35,21.992-12.697,32.988-19.045h0.01c12.535-7.236,25.07-14.473,37.605-21.709
		c0-19.846,0.002-39.691,0.002-59.537c0-18.404,0-36.811,0-55.215c0-1.34,0-2.678,0-4.018c0-4.594,2.807-7.799,6.486-9.922
		c5.254-3.033,10.506-6.068,15.76-9.1c28.65-16.543,57.303-33.086,85.953-49.629c0-27.174,0-54.35,0-81.521
		c-23.533-13.59-47.066-27.178-70.598-40.768c-17.172,9.914-34.342,19.828-51.512,29.742c-15.939,9.199-31.879,18.404-47.818,27.604
		c-1.158,0.67-2.318,1.34-3.479,2.01c-4.045,2.334-8.25,1.469-11.982-0.686c-5.254-3.033-10.508-6.066-15.762-9.1
		c-28.619-16.521-57.238-33.041-85.857-49.564c-23.533,13.588-47.068,27.176-70.604,40.764c-0.002,27.17-0.004,54.344-0.006,81.518
		c17.203,9.932,34.406,19.865,51.611,29.799C213.357,204.706,229.297,213.909,245.234,223.112z M151.754,156.183
		c0.002-11.576,0.004-23.15,0.006-34.727c0-7.201,0.002-14.402,0.002-21.604c0.002-5.811-0.623-11.873,5.447-15.379
		c15.793-9.119,31.586-18.234,47.379-27.352c2.121-1.227,4.242-2.449,6.363-3.676c4.074-2.35,8.285-1.529,12.053,0.646
		c5.252,3.033,10.506,6.066,15.76,9.098c28.619,16.521,57.236,33.045,85.855,49.566c3.896-2.25,7.795-4.5,11.695-6.75
		c30.393-17.545,60.787-35.092,91.182-52.639c1.754-1.012,3.479-1.461,5.109-1.488c0.074-0.002,0.145-0.01,0.215-0.01
		c0.072,0,0.143,0.008,0.215,0.01c1.631,0.027,3.357,0.477,5.111,1.488c10.023,5.787,20.049,11.574,30.072,17.361
		c7.602,4.387,15.203,8.775,22.805,13.166c3.98,2.299,6.449,5.859,6.449,10.623c0,3.072,0,6.145,0,9.217
		c0.002,17.482,0.002,34.965,0.002,52.449c0,3.701-2.012,7.254-5.227,9.109c-5.674,3.275-11.346,6.553-17.02,9.828
		c-28.652,16.543-57.303,33.084-85.955,49.625c0,4.521,0,9.043,0,13.562c0,35.098,0,70.195-0.002,105.293
		c0,3.701-2.01,7.254-5.225,9.109c-10.023,5.787-20.049,11.574-30.074,17.361c-2.75,1.588-5.502,3.174-8.252,4.764h-0.008
		c-5.256,3.033-10.512,6.07-15.768,9.104c-3.289,1.898-7.365,1.898-10.652,0c-5.256-3.033-10.514-6.07-15.77-9.104h-0.006
		c-12.775-7.375-25.553-14.75-38.328-22.125c-3.215-1.855-5.227-5.408-5.227-9.109c0-6.553,0-13.104,0-19.656
		c0-33.066,0-66.133,0-99.199c-3.932-2.27-7.863-4.539-11.795-6.809c-30.396-17.549-60.791-35.098-91.188-52.646
		C153.768,163.437,151.754,159.884,151.754,156.183z"/>
	<path fill="#040404" d="M324.619,50.286c3.898-2.252,7.797-4.504,11.695-6.756c25.133-14.51,50.266-29.02,75.4-43.531h-11.898
		c-23.291,13.447-46.582,26.895-69.871,40.344c-3.289,1.896-7.365,1.896-10.652,0c-23.291-13.449-46.582-26.896-69.875-40.344
		h-11.895c0.414,0.24,0.826,0.477,1.238,0.717C267.381,17.237,296,33.761,324.619,50.286z"/>
	<path fill="#040404" d="M626.891,342.882c-28.621-16.523-57.24-33.047-85.861-49.572c-5.498,3.176-10.996,6.354-16.494,9.531
		c0,6.35,0,12.699,0,19.051c17.203,9.932,34.406,19.865,51.609,29.795c13.363,7.717,26.729,15.434,40.094,23.15h-0.002
		c2.572,1.484,5.146,2.971,7.721,4.457c1.16,0.668,2.32,1.34,3.48,2.008c3.975,2.297,5.297,6.369,5.297,10.607
		c0,6.068,0,12.135,0,18.199c0,33.066,0,66.133,0,99.197c5.502,3.174,11.002,6.348,16.5,9.521c0.002,0,0.002-0.002,0.002-0.002
		v-8.834c-5.275,0-10.551-3.402-10.551-10.207c0,0,0,0,0-0.002c0-6.551,0-13.102,0-19.652v-0.002
		c0-33.066-0.002-66.133-0.002-99.197c-3.518-2.033-7.037-4.062-10.555-6.094h0.002c-0.414-0.24-0.828-0.479-1.24-0.717
		c-30.396-17.549-60.793-35.098-91.188-52.646c-3.68-2.125-5.174-5.367-5.127-8.613c0.104-7.139,7.66-14.295,15.777-9.609
		c5.674,3.275,11.348,6.553,17.021,9.828c28.621,16.523,57.242,33.049,85.861,49.572v-8.518c-1.84,0-3.682-0.475-5.324-1.424
		C638.238,349.435,632.564,346.157,626.891,342.882z"/>
	<path fill="#040404" d="M643.912,227.761c-27.053-15.615-54.105-31.23-81.156-46.848c-3.215-1.855-5.227-5.408-5.227-9.109
		c0-6.551,0-13.104,0-19.656c0-33.064-0.002-66.131-0.002-99.197c-3.932-2.27-7.863-4.539-11.795-6.812
		C519.096,30.759,492.457,15.38,465.82-0.001h-11.895c13.686,7.902,27.371,15.805,41.059,23.707
		c15.939,9.201,31.879,18.404,47.816,27.607c1.16,0.67,2.32,1.34,3.48,2.01c3.975,2.295,5.297,6.369,5.297,10.607
		c0,6.066,0,12.131,0,18.197c0,33.064,0,66.129,0,99.193c3.936,2.27,7.869,4.541,11.803,6.812
		c28.619,16.523,57.236,33.047,85.855,49.568v-8.693C647.422,229.099,645.629,228.753,643.912,227.761z"/>
	<path fill="#040404" d="M357.607-0.001h-11.895c-5.256,3.035-10.512,6.072-15.768,9.105c-3.289,1.898-7.365,1.898-10.652,0
		c-5.256-3.033-10.514-6.07-15.77-9.105h-11.893c10.996,6.35,21.992,12.697,32.988,19.047
		C335.615,12.696,346.611,6.349,357.607-0.001z"/>
	<path fill="#040404" d="M626.891,280.409c-28.619-16.523-57.238-33.045-85.857-49.568c-23.533,13.588-47.068,27.176-70.604,40.764
		c0.002,27.174,0.002,54.348,0.004,81.521c12.533,7.238,25.064,14.473,37.6,21.711h-0.004c4.668,2.693,9.338,5.389,14.006,8.086
		c15.939,9.203,31.879,18.404,47.816,27.607c1.16,0.67,2.32,1.34,3.48,2.01c3.975,2.295,5.297,6.369,5.297,10.607
		c0,6.066,0,12.133,0,18.199c0.002,33.066,0.002,66.133,0.002,99.199c23.535,13.584,47.07,27.17,70.605,40.756l0,0v-8.715
		c-2.01,0.025-4.035-0.482-6.025-1.631c-2.66-1.537-5.322-3.072-7.98-4.607c-15.141-8.74-30.281-17.479-45.424-26.217
		c-3.213-1.855-5.225-5.41-5.225-9.111c0-6.551,0-13.104,0-19.654c0-33.068,0-66.135,0-99.201c-3.932-2.27-7.865-4.539-11.797-6.811
		c-17.621-10.172-35.242-20.346-52.863-30.518h0.004c-7.842-4.527-15.684-9.057-23.525-13.584
		c-4.719-2.725-9.438-5.449-14.158-8.174c-7.23-4.176-5.859-12.447-5.859-19.504c-0.002-17.48-0.002-34.963-0.002-52.447
		c0-3.701,2.01-7.254,5.225-9.109c0.074-0.043,0.146-0.086,0.221-0.127c15.793-9.119,31.586-18.236,47.379-27.355
		c2.121-1.223,4.242-2.449,6.363-3.674c4.072-2.352,8.285-1.527,12.053,0.646c5.252,3.033,10.506,6.066,15.76,9.1
		c28.619,16.523,57.236,33.047,85.855,49.57v-8.602c-2.27-0.066-4.5-0.865-6.586-2.07
		C637.396,286.476,632.145,283.442,626.891,280.409z"/>
	<path fill="#040404" d="M626.891,311.647c-28.617-16.523-57.238-33.047-85.855-49.57c-14.518,8.381-29.035,16.764-43.553,25.145
		c0,16.762,0,33.523,0.002,50.287c17.203,9.932,34.404,19.863,51.607,29.797c4.348,2.51,8.695,5.02,13.043,7.531l0,0
		c12.773,7.373,25.549,14.75,38.322,22.125c3.215,1.855,5.227,5.406,5.227,9.109c0,6.553,0,13.104,0,19.656
		c0,33.066,0,66.131,0,99.199c14.518,8.379,29.035,16.758,43.553,25.137l0,0v-8.5c-3.486,0-6.336-2.023-9.217-3.688
		c-3.111-1.795-6.221-3.59-9.332-5.383c-4.609-2.662-9.219-5.322-13.828-7.982c-3.215-1.854-5.227-5.408-5.227-9.109
		c0-6.553,0-13.104,0-19.656c0-33.064,0-66.131,0-99.197c-3.932-2.27-7.863-4.539-11.795-6.811
		c-8.605-4.967-17.209-9.934-25.812-14.9h0.002c-17.424-10.061-34.846-20.119-52.27-30.18c-4.271-2.465-8.543-4.932-12.814-7.396
		c-4.85-2.801-5.51-7.441-5.51-12.348c0-5.225,0-10.449,0-15.676c0-4.055,0-8.111,0-12.168c0-6.629,4.762-9.164,9.564-11.939
		c7.568-4.371,15.137-8.744,22.705-13.117c3.285-1.898,7.363-1.896,10.65,0c5.674,3.277,11.348,6.553,17.021,9.828
		c28.621,16.523,57.242,33.049,85.861,49.572v-8.518c-1.84,0-3.682-0.475-5.324-1.422
		C638.238,318.198,632.564,314.923,626.891,311.647z"/>
	<path fill="#040404" d="M302.82,193.884c3.975,2.297,5.297,6.369,5.297,10.607c0,6.068,0,12.133,0,18.199
		c0,33.066,0,66.133,0.002,99.199c5.498,3.172,11,6.346,16.5,9.521c5.5-3.174,11-6.35,16.5-9.521c0-4.521,0-9.041,0-13.561
		c0-35.098,0-70.195-0.002-105.293c0-3.701,2.012-7.254,5.227-9.109c5.674-3.275,11.346-6.553,17.021-9.826
		c28.65-16.543,57.303-33.086,85.955-49.629c0-6.35,0-12.699,0-19.051c-5.498-3.176-10.996-6.352-16.494-9.529
		c-3.898,2.252-7.797,4.502-11.695,6.752c-30.395,17.549-60.791,35.1-91.186,52.648c-3.289,1.896-7.365,1.896-10.652,0
		c-5.674-3.277-11.348-6.553-17.021-9.828c-28.619-16.523-57.24-33.047-85.859-49.572c-5.498,3.178-10.998,6.355-16.496,9.531
		c-0.002,6.35-0.002,12.697-0.004,19.049c17.203,9.932,34.406,19.863,51.611,29.797c15.938,9.201,31.877,18.404,47.816,27.607
		C300.5,192.544,301.658,193.216,302.82,193.884z M211.086,134.056c-5.521-3.188-6.119-8.891-3.982-13.346
		c2.422-5.049,8.361-8.498,14.633-4.877c5.674,3.275,11.348,6.551,17.021,9.828c28.621,16.523,57.242,33.047,85.861,49.57
		c3.898-2.25,7.797-4.502,11.695-6.752c2.549-1.473,5.098-2.943,7.645-4.414c27.848-16.078,55.695-32.156,83.543-48.232
		c10.699-6.178,20.426,8.223,13.389,16.037c-0.729,0.809-1.637,1.547-2.74,2.186c-5.674,3.275-11.348,6.551-17.021,9.826
		c-21.309,12.303-42.615,24.605-63.924,36.906c-7.344,4.24-14.689,8.482-22.035,12.723c0,4.521,0,9.041,0,13.561
		c0,35.1,0,70.197,0,105.295c0,12.334-17.332,13.488-20.58,3.469c-0.338-1.037-0.523-2.193-0.523-3.471c0-6.551,0-13.104,0-19.654
		c0-33.066,0-66.133,0-99.199c-3.932-2.27-7.863-4.539-11.795-6.811C271.877,169.153,241.48,151.604,211.086,134.056z"/>
	<path fill="#040404" d="M281.064,218.653c0,6.553,0,13.104,0,19.656c0,33.066,0,66.131,0,99.197
		c14.52,8.381,29.037,16.76,43.555,25.141c14.518-8.381,29.033-16.76,43.551-25.139c0-19.846,0.002-39.693,0.002-59.537
		c0-18.406,0-36.811,0-55.215c0-1.34,0-2.68,0-4.018c0-4.594,2.809-7.799,6.486-9.922c5.252-3.033,10.506-6.066,15.76-9.1
		c28.652-16.543,57.303-33.086,85.953-49.627c0-16.762,0-33.523,0-50.287c-14.518-8.379-29.033-16.762-43.551-25.143
		c-17.17,9.914-34.34,19.826-51.51,29.738c-15.939,9.201-31.877,18.402-47.814,27.604c-1.16,0.67-2.32,1.338-3.48,2.01
		c-4.045,2.334-8.25,1.469-11.982-0.688c-5.254-3.031-10.508-6.066-15.76-9.1c-28.619-16.521-57.236-33.043-85.855-49.566
		c-14.518,8.381-29.035,16.766-43.553,25.145c-0.002,16.762-0.006,33.523-0.008,50.285c3.932,2.27,7.863,4.539,11.795,6.809
		c30.396,17.551,60.791,35.098,91.188,52.646C279.055,211.399,281.064,214.952,281.064,218.653z M184.033,149.675
		c-3.213-1.857-5.227-5.41-5.225-9.111c0-5.555,0.002-11.109,0.004-16.664c0-3.525,0.002-7.049,0.002-10.574
		c0-3.193-0.264-6.41,1.441-9.318c1.74-2.971,4.834-4.393,7.676-6.035c3.109-1.795,6.219-3.592,9.328-5.389
		c4.609-2.66,9.217-5.324,13.824-7.986c3.287-1.9,7.365-1.898,10.652,0c5.674,3.277,11.348,6.553,17.021,9.826
		c28.619,16.525,57.24,33.049,85.861,49.572c3.898-2.25,7.797-4.502,11.695-6.754c30.396-17.549,60.791-35.098,91.188-52.645
		c1.732-1,3.436-1.449,5.049-1.486c0.098-0.004,0.193-0.014,0.291-0.014c0.047,0,0.092,0.004,0.137,0.006
		c1.65,0.018,3.396,0.467,5.174,1.494c0.443,0.256,0.889,0.514,1.332,0.77c8.217,4.746,16.432,9.492,24.648,14.238
		c3.615,2.088,6.291,5.314,6.291,9.746c0,1.018,0,2.035,0,3.051c0,5.225-0.002,10.449-0.002,15.674c0,4.057,0,8.113,0,12.17
		c0,4.688-2.709,7.979-6.486,10.158c-5.254,3.033-10.506,6.066-15.762,9.1c-28.65,16.543-57.303,33.084-85.953,49.627
		c0,4.521,0,9.041,0,13.561c0,35.098,0,70.195,0,105.293c0,3.703-2.01,7.256-5.225,9.111c-4.812,2.775-9.623,5.553-14.434,8.328
		c-3.053,1.762-6.105,3.523-9.158,5.285c-2.766,1.596-5.422,3.438-8.785,3.438c-3.486,0-6.336-2.023-9.217-3.686
		c-3.111-1.795-6.221-3.59-9.332-5.385c-4.609-2.662-9.219-5.32-13.828-7.98c-3.215-1.855-5.227-5.408-5.227-9.111
		c0-6.551,0-13.104,0-19.654c0-33.066,0-66.133,0-99.199c-3.932-2.27-7.863-4.539-11.797-6.811
		C244.824,184.772,214.43,167.222,184.033,149.675z"/>
	<path fill="#040404" d="M16.501,120.911c0-35.096,0-70.195,0-105.293c0-3.703,2.012-7.254,5.227-9.111
		c3.756-2.168,7.514-4.338,11.27-6.508H21.106c-3.52,2.031-7.037,4.062-10.555,6.094c0,4.521,0,9.041,0,13.562
		c0,35.098,0,70.195,0,105.291c0,1.701-0.33,3.191-0.908,4.467c-1.73,3.826-5.686,5.74-9.643,5.742v8.836
		c5.5-3.174,11-6.348,16.5-9.521C16.501,129.95,16.501,125.431,16.501,120.911z"/>
</g>
</svg>
